<svg xmlns="http://www.w3.org/2000/svg" width="206" height="33" viewBox="0 0 206 33" fill="none">
<path d="M0.133897 3.04091C0.122177 2.71978 0.17609 2.40099 0.290947 2.1033C0.405804 1.80561 0.579262 1.53839 0.799601 1.31571C1.3106 0.870341 1.95286 0.628906 2.61622 0.628906C3.27958 0.628906 3.92184 0.872685 4.43284 1.31571C4.65084 1.54308 4.82429 1.81264 4.94149 2.11033C5.0587 2.40802 5.11964 2.72681 5.11964 3.05029C5.11964 3.37376 5.0587 3.69255 4.94149 3.99024C4.82429 4.28793 4.65084 4.55749 4.43284 4.78486C3.92419 5.23023 3.28427 5.47166 2.62091 5.47166C1.95755 5.47166 1.31763 5.22789 0.808977 4.78486C0.588638 4.55984 0.412836 4.28793 0.297979 3.9879C0.183122 3.68552 0.126865 3.36438 0.133897 3.04091ZM4.84539 25.0279H0.39174V7.55316H4.84539V25.0279Z" fill="white"/>
<path d="M7.74248 16.2077C7.74248 13.498 8.39412 11.3204 9.69506 9.67019C10.3045 8.86853 11.1015 8.22627 12.0156 7.79497C12.9298 7.36367 13.9354 7.15739 14.9457 7.1949C15.8083 7.15036 16.6709 7.30741 17.4632 7.65198C18.2554 7.99656 18.954 8.52162 19.5071 9.18029L19.697 7.51603H24.0077V24.5665C24.0428 25.9846 23.6725 27.3817 22.9435 28.6005C22.2286 29.7444 21.1878 30.6539 19.9549 31.2141C18.5367 31.8376 16.999 32.1424 15.4496 32.1072C14.1417 32.1072 12.8478 31.8423 11.6429 31.336C10.5506 30.9211 9.58489 30.2296 8.84417 29.3319L10.9421 26.4628C11.4718 27.0863 12.1328 27.5856 12.8782 27.9278C13.6236 28.27 14.437 28.4435 15.2574 28.4388C16.3357 28.4998 17.3952 28.1388 18.2062 27.4332C18.5695 27.0558 18.8508 26.6105 19.0313 26.1206C19.2118 25.6307 19.2868 25.1103 19.254 24.5899V23.6453C18.7149 24.2524 18.0492 24.7306 17.2991 25.0493C16.5513 25.3681 15.7403 25.5158 14.9269 25.483C13.926 25.5088 12.9322 25.2978 12.0297 24.8642C11.1273 24.4305 10.3444 23.7906 9.74194 22.996C8.41522 21.3317 7.76123 19.1119 7.76123 16.4022V16.203H7.73779L7.74248 16.2077ZM12.4891 16.5452C12.4165 17.8673 12.7564 19.1799 13.4642 20.3027C13.7526 20.7363 14.1487 21.0926 14.6128 21.3317C15.0793 21.5708 15.5973 21.6904 16.1224 21.6739C16.7412 21.7161 17.3577 21.5896 17.9062 21.3036C18.4547 21.02 18.9141 20.591 19.2329 20.0636V12.6307C18.9235 12.1056 18.4711 11.6743 17.9273 11.3907C17.3835 11.1071 16.7717 10.9782 16.1599 11.0203C15.6278 11.0039 15.1027 11.1235 14.6316 11.3673C14.1604 11.611 13.7619 11.972 13.4736 12.415C12.8196 13.3409 12.4891 14.7122 12.4891 16.5452Z" fill="white"/>
<path d="M31.572 7.52522L31.722 9.6114C32.3221 8.82849 33.0933 8.2003 33.9746 7.78071C34.856 7.36113 35.8241 7.1572 36.7968 7.19236C38.6674 7.19236 40.0621 7.75962 40.9669 8.89178C41.8717 10.0263 42.3498 11.6812 42.378 13.9197V25.5555H37.6641V14.0322C37.7344 13.2329 37.5 12.436 37.0148 11.8054C36.7171 11.5499 36.3726 11.3577 35.9999 11.2382C35.6272 11.1186 35.2381 11.0764 34.849 11.1139C34.2442 11.0905 33.6441 11.2382 33.1191 11.5452C32.594 11.8499 32.1604 12.3 31.872 12.8438V25.5437H27.1582V7.53694L31.572 7.52522Z" fill="white"/>
<path d="M45.2636 3.04081C45.2519 2.71968 45.3129 2.40089 45.4394 2.1032C45.566 1.80551 45.7559 1.53829 45.9997 1.31326C46.5646 0.870244 47.2771 0.626465 48.0108 0.626465C48.7445 0.626465 49.4547 0.870244 50.022 1.31326C50.5049 1.77504 50.7744 2.39855 50.7744 3.04784C50.7744 3.69714 50.5049 4.32065 50.022 4.78242C49.4594 5.22544 48.7492 5.46922 48.0179 5.46922C47.2865 5.46922 46.5763 5.22544 46.0137 4.78242C45.7699 4.5574 45.5777 4.28549 45.4488 3.98545C45.3199 3.68542 45.2589 3.36429 45.2683 3.04081H45.2636ZM50.4721 25.0301H45.5519V7.55306H50.4721V25.0278V25.0301Z" fill="white"/>
<path d="M59.4567 3.25234V7.63333H62.4078V11.1259H59.4567V20.0379C59.4098 20.5419 59.5434 21.0482 59.8317 21.4584C60.0239 21.6272 60.2466 21.7514 60.4881 21.8264C60.7295 21.8991 60.9827 21.9202 61.2311 21.885C61.6835 21.8874 62.1336 21.8522 62.5813 21.7772V25.3893C61.6765 25.6753 60.7342 25.8183 59.7895 25.8159C56.5618 25.8159 54.9187 24.1306 54.8601 20.7622V11.147H52.3496V7.65443H54.8601V3.27344H59.459V3.25L59.4567 3.25234Z" fill="white"/>
<path d="M72.7868 25.8088C71.6101 25.8534 70.4357 25.6635 69.3317 25.2486C68.23 24.8337 67.2221 24.2008 66.3665 23.3875C64.714 21.7724 63.8912 19.6276 63.8912 16.9297V16.4609C63.8584 14.7919 64.217 13.1394 64.9343 11.6345C65.5789 10.2726 66.6056 9.12875 67.8901 8.3435C69.2075 7.56059 70.717 7.16211 72.25 7.18555C74.6972 7.18555 76.638 7.95908 78.0421 9.51082C79.4462 11.0626 80.1564 13.2542 80.1564 16.0928V18.0454H68.748C68.8535 19.126 69.3505 20.1293 70.1474 20.8676C70.9632 21.5826 72.0203 21.9599 73.1032 21.9224C73.9307 21.9599 74.7581 21.7959 75.5082 21.4466C76.2607 21.0973 76.917 20.5699 77.4233 19.9136L79.7744 22.5553C79.0336 23.5961 78.0257 24.4188 76.8584 24.9369C75.5832 25.5299 74.1932 25.8276 72.7868 25.8065V25.8088ZM72.2219 11.0719C71.7906 11.0555 71.3616 11.1329 70.9632 11.2993C70.5647 11.4657 70.2084 11.7142 69.9154 12.033C69.2731 12.8229 68.8817 13.7863 68.7879 14.7989H75.4426V14.4145C75.4801 13.5097 75.173 12.6213 74.58 11.9369C74.2729 11.6392 73.9072 11.4095 73.5064 11.2618C73.1056 11.1141 72.679 11.0485 72.2524 11.0743H72.2242L72.2219 11.0719Z" fill="white"/>
<path d="M93.0041 25.0282H88.2949V0.0854492H93.0041V25.0282Z" fill="white"/>
<path d="M106.719 25.0283C106.503 24.6064 106.346 24.0813 106.248 23.4531C105.111 24.7189 103.634 25.3541 101.815 25.3541C100.095 25.3541 98.6672 24.8572 97.5374 23.861C96.4052 22.8647 95.8403 21.6083 95.8403 20.0941C95.8403 18.2329 96.5295 16.8031 97.9101 15.8069C99.2907 14.8107 101.286 14.3067 103.894 14.2973H106.053V13.2894C106.053 12.4784 105.845 11.8267 105.427 11.3415C105.01 10.854 104.354 10.6102 103.454 10.6102C102.664 10.6102 102.043 10.8 101.595 11.1798C101.145 11.5595 100.922 12.0775 100.922 12.7385H96.2294C96.2294 11.7212 96.5435 10.7789 97.1717 9.914C97.7999 9.04905 98.6883 8.36929 99.8346 7.87704C100.981 7.38479 102.27 7.13867 103.7 7.13867C105.866 7.13867 107.584 7.68249 108.857 8.77011C110.13 9.85774 110.765 11.3884 110.765 13.3574V20.9731C110.776 22.6397 111.009 23.9008 111.463 24.7564V25.033H106.721L106.719 25.0283ZM102.837 21.7654C103.529 21.7654 104.169 21.6107 104.752 21.3036C105.336 20.9942 105.77 20.5817 106.051 20.0613V17.0398H104.298C101.949 17.0398 100.697 17.8509 100.547 19.4753L100.531 19.7519C100.531 20.3355 100.737 20.8184 101.147 21.1981C101.56 21.5779 102.122 21.7677 102.837 21.7677V21.7654Z" fill="white"/>
<path d="M129.869 16.4069C129.869 19.2221 129.268 21.4161 128.066 22.9913C126.864 24.5665 125.185 25.3541 123.031 25.3541C121.125 25.3541 119.604 24.6227 118.467 23.1624L118.256 25.0306H114.035V0.0854492H118.727V9.0326C119.81 7.76682 121.233 7.13159 122.998 7.13159C125.141 7.13159 126.821 7.91918 128.04 9.49437C129.259 11.0696 129.866 13.287 129.866 16.1444V16.4046L129.869 16.4069ZM125.176 16.067C125.176 14.2926 124.895 12.9963 124.332 12.1783C123.769 11.3602 122.93 10.9524 121.814 10.9524C120.321 10.9524 119.292 11.5641 118.73 12.7877V19.7214C119.304 20.9543 120.342 21.5731 121.847 21.5731C123.352 21.5731 124.358 20.8254 124.836 19.3322C125.063 18.6173 125.176 17.5297 125.176 16.067Z" fill="white"/>
<path d="M156.398 16.7095H154.23V21.0131H152.285V9.82275H156.22C157.512 9.82275 158.508 10.1134 159.211 10.6924C159.914 11.2714 160.264 12.1105 160.264 13.2075C160.264 13.9553 160.083 14.5835 159.722 15.0874C159.361 15.5937 158.857 15.9805 158.213 16.2524L160.726 20.9123V21.0131H158.642L156.396 16.7095H156.398ZM154.23 15.1414H156.23C156.886 15.1414 157.397 14.9749 157.767 14.6444C158.138 14.3139 158.321 13.8615 158.321 13.2872C158.321 12.7129 158.149 12.223 157.81 11.8949C157.47 11.5667 156.961 11.3979 156.284 11.3886H154.23V15.139V15.1414Z" fill="#C4C4CC"/>
<path d="M170.226 16.018H165.629V19.4614H171.002V21.0131H163.684V9.82275H170.948V11.3909H165.629V14.4803H170.226V16.018Z" fill="#C4C4CC"/>
<path d="M180.425 18.4089H176.088L175.181 21.0155H173.161L177.389 9.82275H179.133L183.369 21.0155H181.339L180.425 18.4089ZM176.634 16.8408H179.879L178.257 12.1973L176.634 16.8408Z" fill="#C4C4CC"/>
<path d="M194.59 17.3703C194.477 18.5634 194.036 19.4964 193.267 20.1644C192.499 20.8325 191.477 21.1677 190.202 21.1677C189.311 21.1677 188.526 20.9567 187.846 20.5324C187.166 20.1105 186.643 19.5081 186.273 18.7299C185.905 17.9517 185.713 17.0469 185.696 16.0155V14.9701C185.696 13.9152 185.884 12.9847 186.257 12.1807C186.629 11.3767 187.168 10.7555 187.867 10.3195C188.565 9.88352 189.374 9.66553 190.293 9.66553C191.528 9.66553 192.522 10.0007 193.275 10.6688C194.027 11.3368 194.465 12.2838 194.59 13.5097H192.653C192.562 12.7057 192.328 12.1244 191.95 11.7681C191.573 11.4118 191.022 11.2337 190.293 11.2337C189.447 11.2337 188.797 11.5431 188.345 12.1619C187.89 12.7807 187.661 13.6855 187.649 14.881V15.8725C187.649 17.082 187.865 18.0056 188.298 18.6431C188.732 19.2784 189.365 19.5972 190.202 19.5972C190.966 19.5972 191.54 19.4261 191.924 19.0815C192.309 18.7369 192.553 18.1673 192.656 17.368H194.592L194.59 17.3703Z" fill="#C4C4CC"/>
<path d="M205.766 11.3909H202.276V21.0155H200.347V11.3909H196.887V9.82275H205.766V11.3909Z" fill="#C4C4CC"/>
<path d="M142.873 31.5704H138.164V0.626953H142.873V31.5704Z" fill="#00B37E"/>
</svg>